# xmcd
#
# Track frame offsets:
#	150
#	15664
#	32317
#	47994
#	61986
#	77176
#	93367
#	106666
#	123444
#	144353
#	159581
#	173590
#	186000
#	201357
#	218055
#	234405
#	251223
#	267566
#	282857
#	295354
#	308050
#	325400
#
# Disc length: 4532 seconds
#
# Revision: 1
# Processed by: cddbd v1.5.2PL0 Copyright (c) Steve Scherf et al.
# Submitted via: audiograbber 1.83.01
#
DISCID=3a11b216
DTITLE=FERNANDO MENDES - 22 SUCESSOS
DYEAR=1900
DGENRE=POPULAR
TTITLE0=SORTE TEM QUEM ACREDITA NELA
TTITLE1=A DESCONHECIDA
TTITLE2=MENINA DO SUBURBIO
TTITLE3=CAMINHO INCERTO
TTITLE4=EU QUERIA DIZER QUE TE AMO NUMA CANÇÃO
TTITLE5=A MENINA DA CALÇADA
TTITLE6=ONTEM, HOJE, AMANHÃ
TTITLE7=RECORDAÇÕES
TTITLE8=VOA POMBINHA
TTITLE9=DESEJO LOUCO
TTITLE10=FOGO DE AMOR
TTITLE11=PRECE AO VENTO
TTITLE12=MEU AMIGO DO MAR
TTITLE13=FAZER NENÉN
TTITLE14=O INTERNATO
TTITLE15=ATÉ SEGUNDA-FEIRA É TEMPO DEMAIS
TTITLE16=MENINA DA PLATÉIA
TTITLE17=CADEIRA DE RODAS
TTITLE18=NANÁ
TTITLE19=TAINAN
TTITLE20=VOCÊ NÃO ME ENSINOU A TE ESQUECER
TTITLE21=DOIS AMORES
EXTD=
EXTT0=
EXTT1=
EXTT2=
EXTT3=
EXTT4=
EXTT5=
EXTT6=
EXTT7=
EXTT8=
EXTT9=
EXTT10=
EXTT11=
EXTT12=
EXTT13=
EXTT14=
EXTT15=
EXTT16=
EXTT17=
EXTT18=
EXTT19=
EXTT20=
EXTT21=
PLAYORDER=
